<?xml version="1.0" encoding="UTF-8"?>
<svg id="Layer_1" data-name="Layer 1" xmlns="http://www.w3.org/2000/svg" viewBox="0 0 14.57 10.01">
  <defs>
    <style>
      .cls-1 {
        fill: #263a5a;
      }
    </style>
  </defs>
  <path class="cls-1" d="M4.21,2.1c.97,1.68,1.8,3.06,2.95,4.78-.25-.02-.41-.02-.57-.02s-.31,0-.56.02c-.26-.5-.53-.99-.81-1.49H1.67c-.31.51-.61,1.02-.87,1.49-.08-.02-.22-.02-.36-.02s-.29,0-.36.02c1-1.42,2.24-3.26,3.19-4.75t0-.02c-.09-.14-.22-.18-.44-.19v-.08c.16,0,.41.02.57.02s.32-.02.41-.02c.22,0,.3.03.42.26ZM3.49,2.49c-.49.77-1.04,1.63-1.58,2.49h3.08c-.46-.82-.96-1.65-1.5-2.49Z"/>
  <path class="cls-1" d="M8.3,4.29c0,1.44,1.21,2.4,2.98,2.4,1.12,0,1.95-.25,2.6-.78l.07.03-.16.62c-.02.09-.06.1-.2.15-.71.21-1.44.33-2.33.33-2.18,0-3.93-.97-3.93-2.74,0-1.67,1.56-2.61,3.92-2.61.83,0,1.62.12,2.3.41.08.03.17.09.19.17l.13.73-.07.02c-.38-.57-1.31-.97-2.56-.97-1.65,0-2.95.74-2.95,2.24Z"/>
</svg>