<?xml version="1.0" encoding="UTF-8"?>
<svg id="Layer_1" data-name="Layer 1" xmlns="http://www.w3.org/2000/svg" viewBox="0 0 323.71 45.05">
  <defs>
    <style>
      .cls-1 {
        fill: #263a5a;
      }
    </style>
  </defs>
  <path class="cls-1" d="M18.97,9.45c4.36,7.56,8.1,13.79,13.28,21.53-1.12-.07-1.84-.11-2.56-.11s-1.4.04-2.52.11c-1.19-2.23-2.38-4.46-3.64-6.7H7.52c-1.4,2.3-2.74,4.57-3.92,6.7-.36-.07-.97-.11-1.62-.11s-1.3.04-1.62.11c4.5-6.41,10.08-14.69,14.36-21.38t-.04-.07c-.4-.61-.97-.79-1.98-.86v-.36c.72,0,1.84.11,2.56.11s1.44-.11,1.84-.11c.97,0,1.33.14,1.87,1.15ZM15.73,11.18c-2.2,3.46-4.68,7.34-7.09,11.23h13.86c-2.09-3.71-4.32-7.41-6.77-11.23Z"/>
  <path class="cls-1" d="M36.32,7.65c1.69,1.37,8.67,6.91,14.83,11.23,3.6,2.56,6.73,5.04,9.04,6.7.07-3.06.14-5.76.14-8.57,0-2.63-.07-5.4-.29-8.71.36.07.83.11,1.33.11s1.01-.04,1.37-.11c-.29,3.85-.4,7.85-.4,12.09,0,3.56.07,7.31.25,11.3h-.4c-1.66-1.26-7.78-6.12-12.67-9.61-4.5-3.17-8.46-6.26-11.16-8.21-.04,1.91-.07,3.82-.07,5.76,0,3.71.11,7.45.36,11.34-.4-.07-.9-.11-1.37-.11-.5,0-.97.04-1.33.11.18-2.66.25-5.87.25-9.29,0-4.68-.14-9.72-.32-14.11h.43v.07Z"/>
  <path class="cls-1" d="M72.54,19.28c0,6.48,5.47,10.8,13.39,10.8,2.99,0,5.94-.5,8.03-1.48-.07-5.44-.22-6.8-.4-8.5.72.04,1.48.11,2.2.11s1.48-.07,2.2-.11c-.18,1.8-.4,3.1-.4,9.43-1.19.4-2.52.83-3.89,1.19-2.41.58-5.04.97-7.81.97-9.79,0-17.64-4.36-17.64-12.35,0-7.52,7.02-11.77,17.64-11.77,3.78,0,7.38.54,10.51,1.84.36.14.76.4.86.76l.43,3.28-.36.11c-1.73-2.56-5.87-4.36-11.52-4.36-7.38,0-13.25,3.31-13.25,10.08Z"/>
  <path class="cls-1" d="M127.04,8.66l.54,2.45-.32.07c-.54-.83-2.66-1.01-4.28-1.01h-14.58c-.04,2.66-.18,5.44-.18,8.13h9.29c1.37,0,4.93-.07,6.05-.36-.04.5-.07.86-.07,1.3s.04.76.07,1.3c-1.12-.32-4.68-.36-6.05-.36h-9.29c0,2.95.14,5.98.18,8.93h13.57c3.06,0,4.79-.18,6.19-1.66l.29.14-1.37,2.84c-.22.5-.36.54-.9.54-6.23,0-10.01-.14-13.03-.14-2.77,0-6.26.11-9.04.14.14-2.12.36-5.33.36-11.48,0-7.6-.18-9.07-.36-11.19,2.84.04,6.41.14,9.25.14s6.55-.14,13.21-.14c.29,0,.4.11.47.36Z"/>
  <path class="cls-1" d="M137.19,30.83c-1.26,0-2.74.11-4,.14.14-2.12.36-5.33.36-11.48,0-7.6-.18-9.07-.36-11.19.72.04,1.48.14,2.2.14s1.44-.11,2.16-.14c-.18,2.12-.36,3.6-.36,11.19,0,4.64.11,7.63.18,9.61h14.47c1.73,0,2.59-.07,4.07-1.62l.29.14-1.58,3.02c-.14.25-.29.32-.65.32-13.43-.04-15.51-.14-16.77-.14Z"/>
  <path class="cls-1" d="M174.88,9.45c4.36,7.56,8.1,13.79,13.28,21.53-1.12-.07-1.84-.11-2.56-.11s-1.4.04-2.52.11c-1.19-2.23-2.38-4.46-3.64-6.7h-16.02c-1.4,2.3-2.74,4.57-3.92,6.7-.36-.07-.97-.11-1.62-.11s-1.3.04-1.62.11c4.5-6.41,10.08-14.69,14.36-21.38t-.04-.07c-.4-.61-.97-.79-1.98-.86v-.36c.72,0,1.84.11,2.56.11s1.44-.11,1.84-.11c.97,0,1.33.14,1.87,1.15ZM171.65,11.18c-2.2,3.46-4.68,7.34-7.09,11.23h13.86c-2.09-3.71-4.32-7.41-6.77-11.23Z"/>
  <path class="cls-1" d="M201.78,19.28c0,6.48,5.47,10.8,13.43,10.8,5.04,0,8.78-1.12,11.7-3.49l.32.14-.72,2.81c-.07.4-.29.47-.9.68-3.2.94-6.48,1.48-10.47,1.48-9.83,0-17.67-4.36-17.67-12.35,0-7.52,7.02-11.77,17.64-11.77,3.74,0,7.27.54,10.37,1.84.36.14.76.4.86.76l.58,3.28-.32.11c-1.73-2.56-5.9-4.36-11.52-4.36-7.42,0-13.28,3.31-13.28,10.08Z"/>
  <path class="cls-1" d="M248.94,9.45c4.36,7.56,8.1,13.79,13.28,21.53-1.12-.07-1.84-.11-2.56-.11s-1.4.04-2.52.11c-1.19-2.23-2.38-4.46-3.64-6.7h-16.02c-1.4,2.3-2.74,4.57-3.92,6.7-.36-.07-.97-.11-1.62-.11s-1.3.04-1.62.11c4.5-6.41,10.08-14.69,14.36-21.38t-.04-.07c-.4-.61-.97-.79-1.98-.86v-.36c.72,0,1.84.11,2.56.11s1.44-.11,1.84-.11c.97,0,1.33.14,1.87,1.15ZM245.7,11.18c-2.2,3.46-4.68,7.34-7.09,11.23h13.86c-2.09-3.71-4.32-7.41-6.77-11.23Z"/>
  <path class="cls-1" d="M286.7,12.3l-.32.07c-1.87-2.23-5.83-3.13-9.86-3.13-3.53,0-8.53.79-8.53,4.03,0,6.41,19.91.83,19.91,10.98,0,6.7-8.46,7.45-12.74,7.45-4.79,0-7.96-.83-10.8-2.2l-.94-3.38.32-.11c1.37,2.2,6.44,4.03,11.45,4.03,4,0,9.39-.94,9.39-4.89,0-7.24-19.91-1.44-19.91-11.01,0-5.94,7.38-6.55,11.91-6.55s7.92,1.12,9.5,2.05l.61,2.66Z"/>
  <path class="cls-1" d="M318.34,30.83c-.72,0-1.48.11-2.2.14.14-2.05.32-5.11.36-10.87h-19.55c0,5.76.22,8.82.36,10.87-.72-.04-1.48-.14-2.16-.14-.72,0-1.48.11-2.2.14.14-2.12.36-5.33.36-11.48,0-7.6-.18-9.07-.36-11.19.72.04,1.48.14,2.2.14s1.44-.11,2.16-.14c-.18,2.02-.36,3.49-.36,9.94h19.55c-.04-6.44-.22-7.92-.36-9.94.72.04,1.48.14,2.2.14s1.44-.11,2.16-.14c-.18,2.12-.36,3.6-.36,11.19,0,6.16.22,9.36.36,11.48-.72-.04-1.48-.14-2.16-.14Z"/>
</svg>